<svg width="26" height="45" viewBox="0 0 26 45" fill="none" xmlns="http://www.w3.org/2000/svg">
<path d="M18.2233 22.8231C19.4053 22.2584 23.9016 17.3173 25.4868 15.6232C25.1175 17.7408 22.8089 21.7408 20.8697 23.6701C18.3303 27.576 20.2695 24.8466 18.2379 28.7995C17.3145 30.9641 18.792 29.8818 17.73 31.9523C17.3851 32.6248 16.8528 33.2386 16.4834 33.2229C15.1906 32.5829 14.9298 29.4583 15.0375 28.0936C15.6069 26.572 17.0413 23.3878 18.2233 22.8231Z" fill="url(#paint0_linear_123_3980)"/>
<path d="M20.8299 17.9761C23.5632 15.4162 25.3076 11.5763 25.4923 10.0234C25.954 11.2469 26.0041 13.675 25.6716 15.1056C25.3392 16.5362 24.0773 17.8663 23.7387 18.1173L21.3378 20.4232C20.4605 21.1604 18.4105 22.9643 17.2285 24.2819C15.751 25.9289 15.2627 27.9078 15.4278 29.6465C15.5663 31.1053 16.4282 32.5641 16.9053 33.1759H14.4121C14.1043 32.7837 13.5071 31.3782 13.581 29.0818C13.6549 26.7854 14.843 24.6741 15.4278 23.9054C16.0896 22.9957 18.0965 20.5361 20.8299 17.9761Z" fill="url(#paint1_linear_123_3980)"/>
<path d="M19.3744 9.88217C20.1501 8.60219 20.7309 5.99205 20.9156 4.84697C21.1926 5.12932 22.0523 7.15281 22.1909 8.70572C22.3294 10.2586 22.0985 11.6704 21.8677 13.2703C21.6368 14.8703 20.7134 16.0468 20.067 17.082C19.4206 18.1173 17.7584 19.8114 16.7888 20.7526C15.8192 21.6937 14.3879 23.529 13.7415 24.8937C13.0951 26.2583 12.8642 27.2936 12.6334 28.5642C12.4487 29.5806 12.6355 31.2308 12.7433 31.9053C12.2815 31.3876 12.0793 28.8465 11.8484 26.823C11.6638 25.2042 12.4179 22.5721 12.818 21.4584C13.1505 19.6514 14.8958 16.8154 15.7269 15.6232C16.6195 14.2429 18.5987 11.1621 19.3744 9.88217Z" fill="url(#paint2_linear_123_3980)"/>
<path d="M9.69537 22.1643C9.10437 26.4183 11.5114 30.4308 12.7427 31.9053C12.4657 30.8857 11.9208 28.2724 11.9578 25.976C11.9947 23.6796 13.1428 20.8467 13.5738 19.5291C14.0817 17.9761 16.9905 13.6468 18.745 11.0586C20.1486 8.98807 20.7919 6.02342 20.915 4.84697L20.4533 3.90582C19.8993 6.58812 16.9715 9.6318 15.4206 11.388C14.174 12.7998 12.7889 14.2115 12.281 15.0115C11.6807 15.8115 10.2864 17.9103 9.69537 22.1643Z" fill="url(#paint3_linear_123_3980)"/>
<path d="M13.8979 7.29399C14.7108 5.93834 14.5497 2.82349 14.4574 1.36469C15.3346 2.07056 16.2989 3.29407 16.5297 5.12933C16.7144 6.59754 16.4374 8.04692 15.9295 8.94102C15.1753 9.94493 13.0207 12.2821 11.6817 13.6468C10.1968 15.1602 9.28079 17.7879 9.0961 19.0114C6.84294 19.6891 4.61747 22.2114 3.78638 23.3878L3.37084 22.8702C3.2785 21.8349 3.87873 19.5761 4.29427 18.7291C4.75829 17.7832 5.5409 16.6585 6.00261 16.0468C6.37199 15.5574 7.3262 14.4625 7.75713 13.9762C7.92643 13.8037 8.40353 13.3456 8.95759 12.8939C9.51165 12.4421 11.0969 10.9018 11.774 10.1645C13.113 8.75279 12.8822 8.98808 13.8979 7.29399Z" fill="url(#paint4_linear_123_3980)"/>
<path d="M11.8223 4.70579C12.4201 3.5764 12.5303 1.1137 12.4687 0C13.5768 0.338817 14.1954 0.972531 14.457 1.36468C14.5678 1.89173 14.5926 4.37639 14.5002 5.31755C14.3696 6.64904 13.726 7.796 13.2402 8.53467C13.0393 8.84025 12.8037 9.12095 12.5512 9.38558L11.3144 10.6822L9.69842 12.3762L8.03624 13.835L6.55876 15.4821C6.05087 16.1409 4.84118 17.7314 4.25018 19.0114C3.65919 20.2914 3.41665 22.1015 3.37048 22.8702C3.06267 22.0388 2.44026 20.0655 2.40332 18.6349C2.36639 17.2044 2.7573 16.1879 2.95738 15.8585C3.28058 15.0899 4.24095 13.2703 5.49681 12.1409C7.06664 10.7292 7.75921 10.1645 9.19053 8.70572C10.3923 7.48091 11.4529 5.52146 11.8223 4.70579Z" fill="url(#paint5_linear_123_3980)"/>
<path d="M1.84686 10.7845C2.89122 10.7047 3.41268 11.2158 3.63954 11.7162C3.79628 12.062 3.63923 12.4498 3.41528 12.7563C3.15784 13.1086 2.85413 13.5771 2.77029 13.8904C2.6709 14.2618 2.58008 14.5163 2.53114 14.672C2.49865 14.7753 2.47939 14.8853 2.39217 14.9495C2.37289 14.9637 2.34269 14.9748 2.31904 14.9785C1.78052 15.0614 1.32026 14.9333 0.6464 14.3609C0.092343 13.8904 0.0461715 13.3727 0 13.0904C0 12.3688 0.369372 10.8975 1.84686 10.7845Z" fill="url(#paint6_linear_123_3980)"/>
<path d="M6.13474 24.3379C6.6888 23.1332 8.12011 23.2555 8.72034 23.3497C8.54512 25.2249 9.20115 26.9306 9.46598 27.7033C9.48582 27.7612 9.44239 27.8202 9.38121 27.8202H8.39715C7.3352 27.8202 6.78114 27.3025 6.55029 27.1143C6.18091 26.6908 5.58069 25.5426 6.13474 24.3379Z" fill="url(#paint7_linear_123_3980)"/>
<path d="M6.27974 7.19986C6.27974 8.49933 5.24616 9.55276 3.97117 9.55276C2.69618 9.55276 1.6626 8.49933 1.6626 7.19986C1.6626 5.90039 2.69618 4.84696 3.97117 4.84696C5.24616 4.84696 6.27974 5.90039 6.27974 7.19986Z" fill="url(#paint8_linear_123_3980)"/>
<path d="M9.74812 3.01181C9.74812 3.60962 9.27263 4.09425 8.68607 4.09425C8.09952 4.09425 7.62402 3.60962 7.62402 3.01181C7.62402 2.41399 8.09952 1.92937 8.68607 1.92937C9.27263 1.92937 9.74812 2.41399 9.74812 3.01181Z" fill="#CFD0A6"/>
<path d="M18.8381 3.10589C18.8381 3.54775 18.4866 3.90595 18.0531 3.90595C17.6195 3.90595 17.2681 3.54775 17.2681 3.10589C17.2681 2.66403 17.6195 2.30582 18.0531 2.30582C18.4866 2.30582 18.8381 2.66403 18.8381 3.10589Z" fill="#6ECF99"/>
<path d="M23.2708 13.8351C23.2708 14.121 23.0433 14.3528 22.7628 14.3528C22.4823 14.3528 22.2549 14.121 22.2549 13.8351C22.2549 13.5492 22.4823 13.3174 22.7628 13.3174C23.0433 13.3174 23.2708 13.5492 23.2708 13.8351Z" fill="#FABE4B"/>
<path d="M9.88102 30.776C9.88102 31.2178 9.52957 31.576 9.09603 31.576C8.66249 31.576 8.31104 31.2178 8.31104 30.776C8.31104 30.3341 8.66249 29.9759 9.09603 29.9759C9.52957 29.9759 9.88102 30.3341 9.88102 30.776Z" fill="#C22698"/>
<path d="M8.58834 21.5997C8.58834 21.9635 8.29891 22.2585 7.94187 22.2585C7.58484 22.2585 7.29541 21.9635 7.29541 21.5997C7.29541 21.2358 7.58484 20.9408 7.94187 20.9408C8.29891 20.9408 8.58834 21.2358 8.58834 21.5997Z" fill="#F7A33A"/>
<path d="M1.99097 17.2233C1.99097 17.5092 1.76356 17.7409 1.48303 17.7409C1.20251 17.7409 0.975098 17.5092 0.975098 17.2233C0.975098 16.9373 1.20251 16.7056 1.48303 16.7056C1.76356 16.7056 1.99097 16.9373 1.99097 17.2233Z" fill="#F75758"/>
<path d="M6.23895 10.2116C6.23895 10.4715 6.03221 10.6822 5.77719 10.6822C5.52217 10.6822 5.31543 10.4715 5.31543 10.2116C5.31543 9.95169 5.52217 9.74098 5.77719 9.74098C6.03221 9.74098 6.23895 9.95169 6.23895 10.2116Z" fill="url(#paint9_radial_123_3980)"/>
<path d="M16.9389 35.3857C17.2831 35.3359 17.6009 35.5747 17.6488 35.9191C17.6967 36.2635 17.4566 36.5831 17.1124 36.6329L6.63109 38.1513C6.28696 38.2011 5.96915 37.9623 5.92123 37.6179C5.87332 37.2735 6.11344 36.9539 6.45757 36.9041L16.9389 35.3857Z" fill="black"/>
<path d="M15.6002 41.4837L8.59033 41.8131C8.79017 42.5818 9.77093 44.1002 12.0952 44.0249C14.4195 43.9496 15.4003 42.2994 15.6002 41.4837Z" fill="black"/>
<path d="M15.6437 41.4945C15.4404 42.3244 14.446 43.9937 12.0965 44.0698C9.74739 44.1459 8.75069 42.6095 8.54659 41.8245L8.53271 41.7708L15.5978 41.4389L15.658 41.436L15.6437 41.4945ZM8.64866 41.8554C8.87489 42.6228 9.84757 44.0527 12.0936 43.9799C14.3382 43.9072 15.3131 42.351 15.5408 41.5314L8.64866 41.8554Z" fill="black"/>
<path d="M16.9354 38.0234C17.2794 37.9725 17.5979 38.2103 17.6468 38.5546C17.6957 38.8988 17.4566 39.2192 17.1126 39.27L6.90739 40.7798C6.56341 40.8307 6.24491 40.5929 6.19599 40.2486C6.14708 39.9044 6.38627 39.584 6.73025 39.5332L16.9354 38.0234Z" fill="black"/>
<defs>
<linearGradient id="paint0_linear_123_3980" x1="24.6558" y1="17.2703" x2="16.3323" y2="32.8102" gradientUnits="userSpaceOnUse">
<stop stop-color="#FB9246"/>
<stop offset="0.304688" stop-color="#F85C4F"/>
<stop offset="0.479688" stop-color="#F0475E"/>
<stop offset="0.694782" stop-color="#F23D66"/>
<stop offset="0.827055" stop-color="#DF1B70"/>
<stop offset="1" stop-color="#C30F73"/>
</linearGradient>
<linearGradient id="paint1_linear_123_3980" x1="24.8867" y1="10.588" x2="14.3591" y2="32.9292" gradientUnits="userSpaceOnUse">
<stop offset="0.00887806" stop-color="#FAC459"/>
<stop offset="0.35504" stop-color="#FCA958"/>
<stop offset="0.582886" stop-color="#F87068"/>
<stop offset="0.763762" stop-color="#E4386F"/>
<stop offset="1" stop-color="#CA187B"/>
</linearGradient>
<linearGradient id="paint2_linear_123_3980" x1="20.9618" y1="5.12932" x2="12.5491" y2="31.7678" gradientUnits="userSpaceOnUse">
<stop stop-color="#CBE6A6"/>
<stop offset="0.148848" stop-color="#91D699"/>
<stop offset="0.294847" stop-color="#64CAAA"/>
<stop offset="0.455929" stop-color="#36BDBD"/>
<stop offset="0.595595" stop-color="#19AACC"/>
<stop offset="0.751009" stop-color="#158EC5"/>
<stop offset="0.995907" stop-color="#216BAF"/>
</linearGradient>
<linearGradient id="paint3_linear_123_3980" x1="20.5923" y1="3.90582" x2="12.1783" y2="31.2992" gradientUnits="userSpaceOnUse">
<stop stop-color="#65CB80"/>
<stop offset="0.181369" stop-color="#2DB986"/>
<stop offset="0.309725" stop-color="#1BAE92"/>
<stop offset="0.48369" stop-color="#0B9FAC"/>
<stop offset="0.609965" stop-color="#0B8AC0"/>
<stop offset="0.716038" stop-color="#156DB6"/>
<stop offset="0.875667" stop-color="#2155AB"/>
<stop offset="1" stop-color="#285CB3"/>
</linearGradient>
<linearGradient id="paint4_linear_123_3980" x1="14.6828" y1="1.74116" x2="3.45621" y2="22.978" gradientUnits="userSpaceOnUse">
<stop stop-color="#FB7D5E"/>
<stop offset="0.204441" stop-color="#FA6268"/>
<stop offset="0.352822" stop-color="#EC3D6C"/>
<stop offset="0.523187" stop-color="#C8378C"/>
<stop offset="0.711378" stop-color="#A638A8"/>
<stop offset="0.834156" stop-color="#9136B0"/>
<stop offset="1" stop-color="#6A34AC"/>
</linearGradient>
<linearGradient id="paint5_linear_123_3980" x1="12.7895" y1="0.141173" x2="3.01643" y2="22.453" gradientUnits="userSpaceOnUse">
<stop stop-color="#FAA762"/>
<stop offset="0.24758" stop-color="#FC8F67"/>
<stop offset="0.415364" stop-color="#FB7372"/>
<stop offset="0.605746" stop-color="#EA528A"/>
<stop offset="0.795549" stop-color="#CA3EA9"/>
<stop offset="1" stop-color="#9938B5"/>
</linearGradient>
<linearGradient id="paint6_linear_123_3980" x1="1.89303" y1="10.7763" x2="1.89303" y2="15.0014" gradientUnits="userSpaceOnUse">
<stop stop-color="#BE4DB0"/>
<stop offset="0.482935" stop-color="#AD4AAF"/>
<stop offset="1" stop-color="#543AAB"/>
</linearGradient>
<linearGradient id="paint7_linear_123_3980" x1="7.70771" y1="23.2937" x2="7.70771" y2="27.8202" gradientUnits="userSpaceOnUse">
<stop stop-color="#F99049"/>
<stop offset="0.274008" stop-color="#F86449"/>
<stop offset="0.631214" stop-color="#F23D5B"/>
<stop offset="1" stop-color="#EC2579"/>
</linearGradient>
<linearGradient id="paint8_linear_123_3980" x1="3.97117" y1="4.84696" x2="3.97117" y2="9.55276" gradientUnits="userSpaceOnUse">
<stop stop-color="#EFC04A"/>
<stop offset="1" stop-color="#F97159"/>
</linearGradient>
<radialGradient id="paint9_radial_123_3980" cx="0" cy="0" r="1" gradientUnits="userSpaceOnUse" gradientTransform="translate(5.77719 10.2116) rotate(90) scale(0.684547 0.671652)">
<stop stop-color="#FFB687"/>
<stop offset="1" stop-color="#C7655E"/>
</radialGradient>
</defs>
</svg>
