<svg width="114" height="47" viewBox="0 0 114 47" fill="none" xmlns="http://www.w3.org/2000/svg">
<path d="M20.9011 24.8466C22.0831 24.2819 26.5794 19.3409 28.1646 17.6468C27.7952 19.7644 25.4866 23.7643 23.5474 25.6937C21.008 29.5995 22.9472 26.8701 20.9157 30.823C19.9922 32.9877 21.4697 31.9053 20.4078 33.9759C20.0629 34.6483 19.5305 35.2621 19.1611 35.2464C17.8683 34.6065 17.6075 31.4818 17.7152 30.1171C18.2847 28.5956 19.7191 25.4113 20.9011 24.8466Z" fill="url(#paint0_linear_123_3854)"/>
<path d="M23.5076 19.9997C26.241 17.4397 27.9854 13.5998 28.1701 12.0469C28.6318 13.2704 28.6818 15.6986 28.3494 17.1291C28.0169 18.5597 26.755 19.8899 26.4164 20.1409L24.0155 22.4467C23.1383 23.1839 21.0882 24.9878 19.9063 26.3054C18.4288 27.9525 17.9405 29.9313 18.1056 31.67C18.2441 33.1288 19.1059 34.5876 19.5831 35.1994H17.0898C16.782 34.8072 16.1848 33.4018 16.2587 31.1054C16.3326 28.8089 17.5207 26.6976 18.1056 25.929C18.7674 25.0192 20.7743 22.5596 23.5076 19.9997Z" fill="url(#paint1_linear_123_3854)"/>
<path d="M22.0521 11.9057C22.8278 10.6257 23.4087 8.01559 23.5933 6.87051C23.8704 7.15286 24.7301 9.17635 24.8686 10.7293C25.0071 12.2822 24.7762 13.6939 24.5454 15.2939C24.3145 16.8939 23.3911 18.0703 22.7447 19.1056C22.0983 20.1408 20.4361 21.8349 19.4665 22.7761C18.4969 23.7173 17.0656 25.5525 16.4192 26.9172C15.7728 28.2819 15.542 29.3171 15.3111 30.5877C15.1264 31.6042 15.3133 33.2543 15.421 33.9288C14.9593 33.4112 14.757 30.8701 14.5262 28.8466C14.3415 27.2278 15.0956 24.5957 15.4958 23.482C15.8282 21.6749 17.5735 18.8389 18.4046 17.6468C19.2972 16.2664 21.2765 13.1857 22.0521 11.9057Z" fill="url(#paint2_linear_123_3854)"/>
<path d="M12.3731 24.1878C11.7821 28.4419 14.1892 32.4543 15.4204 33.9288C15.1434 32.9092 14.5986 30.296 14.6355 27.9995C14.6724 25.7031 15.8206 22.8702 16.2515 21.5526C16.7594 19.9997 19.6682 15.6703 21.4227 13.0822C22.8263 11.0116 23.4696 8.04696 23.5928 6.87051L23.1311 5.92936C22.577 8.61166 19.6492 11.6553 18.0984 13.4116C16.8517 14.8233 15.4666 16.235 14.9587 17.035C14.3585 17.835 12.9641 19.9338 12.3731 24.1878Z" fill="url(#paint3_linear_123_3854)"/>
<path d="M16.5757 9.31753C17.3885 7.96188 17.2275 4.84702 17.1351 3.38823C18.0124 4.09409 18.9766 5.3176 19.2074 7.15286C19.3921 8.62107 19.1151 10.0705 18.6072 10.9646C17.8531 11.9685 15.6984 14.3057 14.3594 15.6703C12.8746 17.1837 11.9585 19.8114 11.7738 21.035C9.52067 21.7126 7.2952 24.2349 6.46412 25.4113L6.04858 24.8937C5.95623 23.8584 6.55646 21.5997 6.972 20.7526C7.43602 19.8068 8.21863 18.6821 8.68035 18.0703C9.04972 17.5809 10.0039 16.486 10.4349 15.9998C10.6042 15.8272 11.0813 15.3692 11.6353 14.9174C12.1894 14.4657 13.7746 12.9253 14.4518 12.1881C15.7908 10.7763 15.5599 11.0116 16.5757 9.31753Z" fill="url(#paint4_linear_123_3854)"/>
<path d="M14.5 6.72933C15.0978 5.59994 15.208 3.13724 15.1464 2.02354C16.2545 2.36235 16.8731 2.99607 17.1348 3.38822C17.2456 3.91527 17.2703 6.39992 17.178 7.34108C17.0473 8.67257 16.4037 9.81954 15.918 10.5582C15.717 10.8638 15.4814 11.1445 15.229 11.4091L13.9922 12.7057L12.3762 14.3998L10.714 15.8586L9.23649 17.5056C8.72861 18.1644 7.51891 19.755 6.92792 21.0349C6.33692 22.3149 6.09439 24.1251 6.04821 24.8937C5.7404 24.0623 5.11799 22.089 5.08106 20.6585C5.04412 19.2279 5.43504 18.2115 5.63511 17.8821C5.95831 17.1134 6.91868 15.2939 8.17455 14.1645C9.74437 12.7527 10.4369 12.1881 11.8683 10.7293C13.07 9.50445 14.1307 7.545 14.5 6.72933Z" fill="url(#paint5_linear_123_3854)"/>
<path d="M4.52459 12.8081C5.56895 12.7283 6.09042 13.2394 6.31728 13.7398C6.47401 14.0855 6.31697 14.4733 6.09301 14.7798C5.83558 15.1322 5.53186 15.6006 5.44803 15.9139C5.34863 16.2854 5.25782 16.5399 5.20887 16.6955C5.17638 16.7988 5.15713 16.9088 5.0699 16.973C5.05063 16.9872 5.02042 16.9984 4.99677 17.002C4.45825 17.0849 3.99799 16.9568 3.32413 16.3845C2.77008 15.9139 2.72391 15.3963 2.67773 15.1139C2.67773 14.3924 3.04711 12.921 4.52459 12.8081Z" fill="url(#paint6_linear_123_3854)"/>
<path d="M8.81248 26.3614C9.36654 25.1567 10.7978 25.2791 11.3981 25.3732C11.2229 27.2484 11.8789 28.9542 12.1437 29.7268C12.1636 29.7847 12.1201 29.8437 12.0589 29.8437H11.0749C10.0129 29.8437 9.45888 29.3261 9.22802 29.1378C8.85865 28.7143 8.25842 27.5661 8.81248 26.3614Z" fill="url(#paint7_linear_123_3854)"/>
<path d="M8.95748 9.2234C8.95748 10.5229 7.9239 11.5763 6.64891 11.5763C5.37392 11.5763 4.34033 10.5229 4.34033 9.2234C4.34033 7.92393 5.37392 6.8705 6.64891 6.8705C7.9239 6.8705 8.95748 7.92393 8.95748 9.2234Z" fill="url(#paint8_linear_123_3854)"/>
<path d="M12.4259 5.03535C12.4259 5.63317 11.9504 6.11779 11.3638 6.11779C10.7773 6.11779 10.3018 5.63317 10.3018 5.03535C10.3018 4.43754 10.7773 3.95291 11.3638 3.95291C11.9504 3.95291 12.4259 4.43754 12.4259 5.03535Z" fill="#CFD0A6"/>
<path d="M21.5158 5.12943C21.5158 5.57129 21.1643 5.92949 20.7308 5.92949C20.2973 5.92949 19.9458 5.57129 19.9458 5.12943C19.9458 4.68756 20.2973 4.32936 20.7308 4.32936C21.1643 4.32936 21.5158 4.68756 21.5158 5.12943Z" fill="#6ECF99"/>
<path d="M25.9485 15.8586C25.9485 16.1445 25.7211 16.3763 25.4406 16.3763C25.16 16.3763 24.9326 16.1445 24.9326 15.8586C24.9326 15.5727 25.16 15.3409 25.4406 15.3409C25.7211 15.3409 25.9485 15.5727 25.9485 15.8586Z" fill="#FABE4B"/>
<path d="M12.5588 32.7995C12.5588 33.2414 12.2073 33.5996 11.7738 33.5996C11.3402 33.5996 10.9888 33.2414 10.9888 32.7995C10.9888 32.3576 11.3402 31.9994 11.7738 31.9994C12.2073 31.9994 12.5588 32.3576 12.5588 32.7995Z" fill="#C22698"/>
<path d="M11.2661 23.6232C11.2661 23.9871 10.9766 24.2821 10.6196 24.2821C10.2626 24.2821 9.97314 23.9871 9.97314 23.6232C9.97314 23.2593 10.2626 22.9643 10.6196 22.9643C10.9766 22.9643 11.2661 23.2593 11.2661 23.6232Z" fill="#F7A33A"/>
<path d="M4.66871 19.2468C4.66871 19.5327 4.44129 19.7645 4.16077 19.7645C3.88024 19.7645 3.65283 19.5327 3.65283 19.2468C3.65283 18.9609 3.88024 18.7291 4.16077 18.7291C4.44129 18.7291 4.66871 18.9609 4.66871 19.2468Z" fill="#F75758"/>
<path d="M8.91669 12.2351C8.91669 12.4951 8.70995 12.7058 8.45492 12.7058C8.1999 12.7058 7.99316 12.4951 7.99316 12.2351C7.99316 11.9752 8.1999 11.7645 8.45492 11.7645C8.70995 11.7645 8.91669 11.9752 8.91669 12.2351Z" fill="url(#paint9_radial_123_3854)"/>
<path d="M14.1994 0.0256873C18.4142 -0.257543 21.8884 1.88322 22.6488 2.4257C25.4191 4.40213 26.4656 5.7601 27.3103 7.13148C29.0204 9.9079 29.6781 14.0283 29.4104 16.3199L29.3989 16.413C29.1406 18.3779 27.9163 20.9363 27.3103 22.0018C26.2708 23.6609 23.7366 26.9617 23.1087 27.7899L23.0731 27.8379C22.3265 28.8688 21.5836 31.3318 21.4927 32.1193L21.4746 32.2811C21.4322 32.6706 21.3891 33.1364 21.3559 33.5199C21.3227 33.9019 21.2538 34.2853 21.0743 34.6241C20.4685 35.7683 19.5524 36.0987 19.089 36.1182L19.0456 36.1192V35.2198C19.1557 35.2198 19.8081 35.0936 20.2795 34.2032C20.3752 34.0225 20.4305 33.7809 20.4598 33.4421C20.498 33.0019 20.5496 32.4459 20.5992 32.0161C20.6569 31.5164 20.8975 30.6095 21.2013 29.7347C21.5017 28.8694 21.9202 27.8688 22.392 27.2465C23.0351 26.3982 25.519 23.1615 26.5376 21.5407C26.8262 21.0312 27.2709 20.1493 27.6707 19.1593C28.0789 18.1485 28.4155 17.0856 28.5172 16.2155C28.6368 15.1915 28.5527 13.689 28.2213 12.09C27.8907 10.4945 27.329 8.87679 26.5445 7.60316C25.765 6.33771 24.8026 5.06718 22.1264 3.1579C21.4336 2.66358 18.1695 0.66037 14.2597 0.923102C12.1914 1.0621 10.9499 1.2833 9.87542 1.69201C8.7925 2.10393 7.82389 2.72574 6.30878 3.77652C5.74571 4.16703 4.89849 4.97345 4.06353 5.97179C3.23188 6.96618 2.47451 8.0771 2.04867 9.04621L2.03875 9.06878L2.02768 9.09074C1.58351 9.96785 0.752627 12.3312 0.921832 14.6421C1.14576 17.7004 1.67217 19.883 3.30867 22.2971C3.9839 23.2931 4.74831 24.3481 5.42146 25.2789C6.0395 26.1335 6.60274 26.9133 6.91835 27.414L6.97817 27.5104L6.99055 27.5306L7.0018 27.5516C7.23124 27.9776 7.5759 28.6805 7.87971 29.4333C8.17507 30.1651 8.46829 31.0312 8.53672 31.7519C8.60113 32.4303 8.68013 32.9901 8.73778 33.3954C8.79766 33.8165 8.83252 34.0694 8.92706 34.29C9.15409 34.8197 9.52249 35.2198 10.1345 35.2198V36.1192L10.0817 36.1186C9.01347 36.095 8.42362 35.3585 8.12846 34.708L8.10044 34.6444C7.98668 34.3789 7.93167 34.0948 7.88841 33.8085L7.8473 33.5221C7.78938 33.1148 7.70776 32.5374 7.64124 31.8369C7.53041 30.6698 6.64089 28.7781 6.20996 27.9782C5.6559 27.0684 3.93297 24.8209 2.56418 22.8018C0.864501 20.2945 0.291385 18.008 0.0473427 15.0011L0.024769 14.7078C-0.159915 12.1855 0.732717 9.65697 1.22522 8.68442C2.15631 6.56546 4.41266 4.02774 5.73398 3.08131L5.79617 3.03748C8.81871 0.941238 9.9978 0.308033 14.1994 0.0256873ZM19.0456 35.2198V36.1192H10.1345V35.2198H19.0456Z" fill="black"/>
<path d="M19.6167 37.4093C19.9608 37.3594 20.2786 37.5982 20.3265 37.9426C20.3744 38.287 20.1343 38.6066 19.7902 38.6565L9.30883 40.1748C8.9647 40.2247 8.64688 39.9859 8.59897 39.6415C8.55105 39.2971 8.79118 38.9775 9.13531 38.9276L19.6167 37.4093Z" fill="black"/>
<path d="M18.2779 43.5073L11.2681 43.8367C11.4679 44.6053 12.4487 46.1237 14.773 46.0484C17.0973 45.9731 18.078 44.3229 18.2779 43.5073Z" fill="black"/>
<path d="M18.3214 43.518C18.1181 44.3479 17.1238 46.0172 14.7743 46.0933C12.4251 46.1694 11.4284 44.633 11.2243 43.848L11.2104 43.7943L18.2756 43.4624L18.3357 43.4595L18.3214 43.518ZM11.3264 43.8789C11.5526 44.6464 12.5253 46.0762 14.7714 46.0035C17.0159 45.9308 17.9908 44.3745 18.2186 43.555L11.3264 43.8789Z" fill="black"/>
<path d="M19.6132 40.0469C19.9571 39.996 20.2756 40.2338 20.3246 40.5781C20.3735 40.9224 20.1343 41.2427 19.7903 41.2936L9.58512 42.8034C9.24114 42.8543 8.92264 42.6164 8.87373 42.2722C8.82481 41.9279 9.064 41.6076 9.40798 41.5567L19.6132 40.0469Z" fill="black"/>
<path d="M110.664 13.1886V15.1372H106.788V27.7507H104.4V15.1372H100.502V13.1886H110.664Z" fill="black"/>
<path d="M94.3251 27.7507L90.9727 21.9258H89.1498V27.7507H86.7612V13.1886H91.7899C92.9073 13.1886 93.8502 13.3841 94.6185 13.7753C95.4007 14.1664 95.9804 14.6902 96.3575 15.3467C96.7487 16.0032 96.9442 16.7366 96.9442 17.5467C96.9442 18.4966 96.6649 19.3626 96.1061 20.1449C95.5613 20.9131 94.7163 21.4369 93.5708 21.7163L97.1747 27.7507H94.3251ZM89.1498 20.0192H91.7899C92.6838 20.0192 93.3543 19.7957 93.8013 19.3487C94.2623 18.9017 94.4928 18.301 94.4928 17.5467C94.4928 16.7924 94.2693 16.2058 93.8223 15.7867C93.3753 15.3537 92.6978 15.1372 91.7899 15.1372H89.1498V20.0192Z" fill="black"/>
<path d="M79.6739 24.7754H73.5766L72.529 27.7507H70.0356L75.2529 13.1676H78.0186L83.2358 27.7507H80.7215L79.6739 24.7754ZM79.0034 22.8268L76.6357 16.0591L74.2471 22.8268H79.0034Z" fill="black"/>
<path d="M66.498 13.1886V27.7507H64.1094V17.7772L59.6674 27.7507H58.0122L53.5492 17.7772V27.7507H51.1606V13.1886H53.7378L58.8503 24.6078L63.9418 13.1886H66.498Z" fill="black"/>
<path d="M42.0562 27.8974C41.0784 27.8974 40.1984 27.7297 39.4162 27.3945C38.6339 27.0453 38.0193 26.5564 37.5723 25.9278C37.1254 25.2992 36.9019 24.5659 36.9019 23.7278H39.4581C39.514 24.3564 39.7584 24.8732 40.1914 25.2783C40.6384 25.6834 41.26 25.8859 42.0562 25.8859C42.8803 25.8859 43.5229 25.6903 43.9839 25.2992C44.4448 24.8941 44.6753 24.3773 44.6753 23.7487C44.6753 23.2598 44.5286 22.8617 44.2353 22.5544C43.9559 22.2471 43.5997 22.0097 43.1667 21.842C42.7476 21.6744 42.161 21.4928 41.4067 21.2973C40.4568 21.0458 39.6816 20.7944 39.0809 20.543C38.4943 20.2776 37.9914 19.8725 37.5723 19.3277C37.1533 18.7829 36.9438 18.0566 36.9438 17.1486C36.9438 16.3105 37.1533 15.5772 37.5723 14.9486C37.9914 14.32 38.5781 13.8381 39.3324 13.5029C40.0867 13.1676 40.9597 13 41.9514 13C43.3623 13 44.5147 13.3562 45.4086 14.0686C46.3166 14.767 46.8194 15.7308 46.9172 16.9601H44.2772C44.2353 16.4293 43.9839 15.9753 43.5229 15.5981C43.0619 15.221 42.4543 15.0324 41.7 15.0324C41.0156 15.0324 40.4568 15.207 40.0238 15.5562C39.5908 15.9054 39.3743 16.4083 39.3743 17.0648C39.3743 17.5118 39.507 17.882 39.7724 18.1753C40.0517 18.4547 40.4009 18.6782 40.82 18.8458C41.2391 19.0134 41.8118 19.195 42.5381 19.3906C43.5019 19.656 44.2842 19.9214 44.8848 20.1868C45.4994 20.4522 46.0163 20.8642 46.4353 21.423C46.8683 21.9677 47.0848 22.7011 47.0848 23.623C47.0848 24.3633 46.8823 25.0618 46.4772 25.7183C46.0861 26.3748 45.5064 26.9056 44.7381 27.3107C43.9839 27.7018 43.0899 27.8974 42.0562 27.8974Z" fill="black"/>
<path d="M62.0541 39.4562C61.4519 39.4562 60.9056 39.3165 60.4151 39.0372C59.9247 38.7516 59.5367 38.3574 59.2511 37.8545C58.9717 37.3454 58.832 36.7712 58.832 36.1317C58.832 35.4923 58.9717 34.9211 59.2511 34.4183C59.5367 33.9092 59.9247 33.515 60.4151 33.2356C60.9056 32.95 61.4519 32.8073 62.0541 32.8073C62.6625 32.8073 63.2119 32.95 63.7024 33.2356C64.1928 33.515 64.5777 33.9092 64.8571 34.4183C65.1365 34.9211 65.2761 35.4923 65.2761 36.1317C65.2761 36.7712 65.1365 37.3454 64.8571 37.8545C64.5777 38.3574 64.1928 38.7516 63.7024 39.0372C63.2119 39.3165 62.6625 39.4562 62.0541 39.4562ZM62.0541 38.8882C62.5383 38.8882 62.9729 38.7764 63.3578 38.5529C63.7427 38.3294 64.0469 38.0097 64.2704 37.5938C64.4939 37.1716 64.6057 36.6843 64.6057 36.1317C64.6057 35.5792 64.4939 35.095 64.2704 34.679C64.0469 34.2631 63.7427 33.9434 63.3578 33.7199C62.9729 33.4964 62.5383 33.3846 62.0541 33.3846C61.5698 33.3846 61.1353 33.4964 60.7504 33.7199C60.3655 33.9434 60.0613 34.2631 59.8378 34.679C59.6143 35.095 59.5025 35.5792 59.5025 36.1317C59.5025 36.6843 59.6143 37.1716 59.8378 37.5938C60.0613 38.0097 60.3655 38.3294 60.7504 38.5529C61.1353 38.7764 61.5698 38.8882 62.0541 38.8882Z" fill="black"/>
<path d="M55.1053 34.7815C54.9191 34.3531 54.6335 34.0179 54.2486 33.7757C53.8699 33.5274 53.4229 33.4032 52.9076 33.4032C52.4234 33.4032 51.9888 33.515 51.6039 33.7385C51.219 33.962 50.9148 34.2817 50.6913 34.6977C50.4678 35.1074 50.356 35.5854 50.356 36.1317C50.356 36.6781 50.4678 37.1592 50.6913 37.5751C50.9148 37.9911 51.219 38.3108 51.6039 38.5343C51.9888 38.7578 52.4234 38.8696 52.9076 38.8696C53.3608 38.8696 53.7674 38.7733 54.1275 38.5809C54.4938 38.3822 54.7856 38.1028 55.0029 37.7428C55.2264 37.3765 55.3536 36.9512 55.3847 36.467H52.6469V35.9362H56.0738V36.4111C56.0427 36.9823 55.8875 37.5006 55.6082 37.9663C55.3288 38.4257 54.9532 38.7888 54.4814 39.0558C54.0158 39.3228 53.4912 39.4562 52.9076 39.4562C52.3054 39.4562 51.7591 39.3165 51.2686 39.0372C50.7782 38.7516 50.3902 38.3574 50.1046 37.8545C49.8252 37.3454 49.6855 36.7712 49.6855 36.1317C49.6855 35.4923 49.8252 34.9211 50.1046 34.4183C50.3902 33.9092 50.7782 33.515 51.2686 33.2356C51.7591 32.95 52.3054 32.8073 52.9076 32.8073C53.6029 32.8073 54.2113 32.9811 54.7328 33.3287C55.2543 33.6764 55.633 34.1606 55.8689 34.7815H55.1053Z" fill="black"/>
<path d="M43.7059 39.4562C43.1037 39.4562 42.5574 39.3165 42.067 39.0372C41.5765 38.7516 41.1885 38.3574 40.9029 37.8545C40.6236 37.3454 40.4839 36.7712 40.4839 36.1317C40.4839 35.4923 40.6236 34.9211 40.9029 34.4183C41.1885 33.9092 41.5765 33.515 42.067 33.2356C42.5574 32.95 43.1037 32.8073 43.7059 32.8073C44.3143 32.8073 44.8638 32.95 45.3542 33.2356C45.8447 33.515 46.2296 33.9092 46.5089 34.4183C46.7883 34.9211 46.928 35.4923 46.928 36.1317C46.928 36.7712 46.7883 37.3454 46.5089 37.8545C46.2296 38.3574 45.8447 38.7516 45.3542 39.0372C44.8638 39.3165 44.3143 39.4562 43.7059 39.4562ZM43.7059 38.8882C44.1902 38.8882 44.6248 38.7764 45.0097 38.5529C45.3946 38.3294 45.6988 38.0097 45.9223 37.5938C46.1458 37.1716 46.2575 36.6843 46.2575 36.1317C46.2575 35.5792 46.1458 35.095 45.9223 34.679C45.6988 34.2631 45.3946 33.9434 45.0097 33.7199C44.6248 33.4964 44.1902 33.3846 43.7059 33.3846C43.2217 33.3846 42.7871 33.4964 42.4022 33.7199C42.0173 33.9434 41.7131 34.2631 41.4896 34.679C41.2661 35.095 41.1544 35.5792 41.1544 36.1317C41.1544 36.6843 41.2661 37.1716 41.4896 37.5938C41.7131 38.0097 42.0173 38.3294 42.4022 38.5529C42.7871 38.7764 43.2217 38.8882 43.7059 38.8882Z" fill="black"/>
<path d="M35.6519 38.8602H37.9892V39.391H35V32.8818H35.6519V38.8602Z" fill="black"/>
<path d="M112.361 39.391L110.75 36.6719H109.549V39.391H108.897V32.8818H110.853C111.579 32.8818 112.128 33.0556 112.501 33.4032C112.88 33.7509 113.069 34.2072 113.069 34.7722C113.069 35.244 112.932 35.6475 112.659 35.9827C112.392 36.3118 111.995 36.526 111.467 36.6253L113.143 39.391H112.361ZM109.549 36.1411H110.862C111.371 36.1411 111.753 36.0169 112.007 35.7686C112.268 35.5202 112.398 35.1881 112.398 34.7722C112.398 34.3438 112.274 34.0148 112.026 33.785C111.778 33.5491 111.386 33.4312 110.853 33.4312H109.549V36.1411Z" fill="black"/>
<path d="M102.724 33.4126V35.8431H105.191V36.3832H102.724V38.8509H105.471V39.391H102.072V32.8724H105.471V33.4126H102.724Z" fill="black"/>
<path d="M98.1107 39.391L95.2891 36.3832V39.391H94.6372V32.8818H95.2891V35.9269L98.1107 32.8818H98.9395L95.8944 36.1317L98.9674 39.391H98.1107Z" fill="black"/>
<path d="M90.1921 37.8452H87.2308L86.6627 39.391H85.9736L88.3483 32.9656H89.0839L91.4493 39.391H90.7601L90.1921 37.8452ZM89.9965 37.3051L88.7114 33.785L87.4264 37.3051H89.9965Z" fill="black"/>
<path d="M82.8002 32.9656V39.391H82.1484V34.26L79.8576 39.391H79.3826L77.0918 34.2786V39.391H76.4399V32.9656H77.1291L79.6154 38.5343L82.1018 32.9656H82.8002Z" fill="black"/>
<defs>
<linearGradient id="paint0_linear_123_3854" x1="27.3335" y1="19.2938" x2="19.0101" y2="34.8337" gradientUnits="userSpaceOnUse">
<stop stop-color="#FB9246"/>
<stop offset="0.304688" stop-color="#F85C4F"/>
<stop offset="0.479688" stop-color="#F0475E"/>
<stop offset="0.694782" stop-color="#F23D66"/>
<stop offset="0.827055" stop-color="#DF1B70"/>
<stop offset="1" stop-color="#C30F73"/>
</linearGradient>
<linearGradient id="paint1_linear_123_3854" x1="27.5644" y1="12.6116" x2="17.0368" y2="34.9527" gradientUnits="userSpaceOnUse">
<stop offset="0.00887806" stop-color="#FAC459"/>
<stop offset="0.35504" stop-color="#FCA958"/>
<stop offset="0.582886" stop-color="#F87068"/>
<stop offset="0.763762" stop-color="#E4386F"/>
<stop offset="1" stop-color="#CA187B"/>
</linearGradient>
<linearGradient id="paint2_linear_123_3854" x1="23.6395" y1="7.15286" x2="15.2269" y2="33.7913" gradientUnits="userSpaceOnUse">
<stop stop-color="#CBE6A6"/>
<stop offset="0.148848" stop-color="#91D699"/>
<stop offset="0.294847" stop-color="#64CAAA"/>
<stop offset="0.455929" stop-color="#36BDBD"/>
<stop offset="0.595595" stop-color="#19AACC"/>
<stop offset="0.751009" stop-color="#158EC5"/>
<stop offset="0.995907" stop-color="#216BAF"/>
</linearGradient>
<linearGradient id="paint3_linear_123_3854" x1="23.2701" y1="5.92936" x2="14.856" y2="33.3228" gradientUnits="userSpaceOnUse">
<stop stop-color="#65CB80"/>
<stop offset="0.181369" stop-color="#2DB986"/>
<stop offset="0.309725" stop-color="#1BAE92"/>
<stop offset="0.48369" stop-color="#0B9FAC"/>
<stop offset="0.609965" stop-color="#0B8AC0"/>
<stop offset="0.716038" stop-color="#156DB6"/>
<stop offset="0.875667" stop-color="#2155AB"/>
<stop offset="1" stop-color="#285CB3"/>
</linearGradient>
<linearGradient id="paint4_linear_123_3854" x1="17.3606" y1="3.76469" x2="6.13395" y2="25.0015" gradientUnits="userSpaceOnUse">
<stop stop-color="#FB7D5E"/>
<stop offset="0.204441" stop-color="#FA6268"/>
<stop offset="0.352822" stop-color="#EC3D6C"/>
<stop offset="0.523187" stop-color="#C8378C"/>
<stop offset="0.711378" stop-color="#A638A8"/>
<stop offset="0.834156" stop-color="#9136B0"/>
<stop offset="1" stop-color="#6A34AC"/>
</linearGradient>
<linearGradient id="paint5_linear_123_3854" x1="15.4672" y1="2.16471" x2="5.69417" y2="24.4765" gradientUnits="userSpaceOnUse">
<stop stop-color="#FAA762"/>
<stop offset="0.24758" stop-color="#FC8F67"/>
<stop offset="0.415364" stop-color="#FB7372"/>
<stop offset="0.605746" stop-color="#EA528A"/>
<stop offset="0.795549" stop-color="#CA3EA9"/>
<stop offset="1" stop-color="#9938B5"/>
</linearGradient>
<linearGradient id="paint6_linear_123_3854" x1="4.57076" y1="12.7998" x2="4.57076" y2="17.0249" gradientUnits="userSpaceOnUse">
<stop stop-color="#BE4DB0"/>
<stop offset="0.482935" stop-color="#AD4AAF"/>
<stop offset="1" stop-color="#543AAB"/>
</linearGradient>
<linearGradient id="paint7_linear_123_3854" x1="10.3854" y1="25.3172" x2="10.3854" y2="29.8437" gradientUnits="userSpaceOnUse">
<stop stop-color="#F99049"/>
<stop offset="0.274008" stop-color="#F86449"/>
<stop offset="0.631214" stop-color="#F23D5B"/>
<stop offset="1" stop-color="#EC2579"/>
</linearGradient>
<linearGradient id="paint8_linear_123_3854" x1="6.64891" y1="6.8705" x2="6.64891" y2="11.5763" gradientUnits="userSpaceOnUse">
<stop stop-color="#EFC04A"/>
<stop offset="1" stop-color="#F97159"/>
</linearGradient>
<radialGradient id="paint9_radial_123_3854" cx="0" cy="0" r="1" gradientUnits="userSpaceOnUse" gradientTransform="translate(8.45492 12.2351) rotate(90) scale(0.684547 0.671652)">
<stop stop-color="#FFB687"/>
<stop offset="1" stop-color="#C7655E"/>
</radialGradient>
</defs>
</svg>